<?xml version="1.0" encoding="UTF-8" standalone="no"?>
<!-- Created with Inkscape (http://www.inkscape.org/) -->

<svg
   width="27.885757mm"
   height="3.1263885mm"
   viewBox="0 0 27.885757 3.1263885"
   version="1.1"
   id="svg403"
   xml:space="preserve"
   inkscape:version="1.2.1 (9c6d41e410, 2022-07-14)"
   sodipodi:docname="frontbg.svg"
   xmlns:inkscape="http://www.inkscape.org/namespaces/inkscape"
   xmlns:sodipodi="http://sodipodi.sourceforge.net/DTD/sodipodi-0.dtd"
   xmlns="http://www.w3.org/2000/svg"
   xmlns:svg="http://www.w3.org/2000/svg"><sodipodi:namedview
     id="namedview405"
     pagecolor="#ffffff"
     bordercolor="#000000"
     borderopacity="0.25"
     inkscape:showpageshadow="2"
     inkscape:pageopacity="0.0"
     inkscape:pagecheckerboard="0"
     inkscape:deskcolor="#d1d1d1"
     inkscape:document-units="mm"
     showgrid="false"
     showguides="true"
     inkscape:zoom="1.2535325"
     inkscape:cx="222.57101"
     inkscape:cy="161.1446"
     inkscape:window-width="1920"
     inkscape:window-height="1027"
     inkscape:window-x="1912"
     inkscape:window-y="-8"
     inkscape:window-maximized="1"
     inkscape:current-layer="layer1"><sodipodi:guide
       position="28.462264,-1.9614178"
       orientation="0,-1"
       id="guide3112"
       inkscape:locked="false" /><sodipodi:guide
       position="-94.869055,25.116892"
       orientation="1,0"
       id="guide3329"
       inkscape:locked="false" /><sodipodi:guide
       position="-50.529858,53.118441"
       orientation="0,-1"
       id="guide3331"
       inkscape:locked="false" /><sodipodi:guide
       position="76.221992,-21.960807"
       orientation="1,0"
       id="guide3333"
       inkscape:locked="false" /></sodipodi:namedview><defs
     id="defs400" /><g
     inkscape:label="Layer 1"
     inkscape:groupmode="layer"
     id="layer1"
     transform="translate(-98.101015,-53.119364)"><g
       aria-label="WEB RAZVOJ"
       id="text815-3-0-1"
       style="font-size:4.22349px;font-family:'Arial Rounded MT Bold';-inkscape-font-specification:'Arial Rounded MT Bold, Normal';fill:#003380;stroke-width:0.351957"><path
         d="m 100.49941,55.717807 -0.48876,-1.812719 -0.494935,1.812719 q -0.05774,0.206225 -0.0928,0.296964 -0.033,0.08868 -0.117548,0.160856 -0.08455,0.07012 -0.224785,0.07012 -0.113424,0 -0.187665,-0.04331 -0.07218,-0.04124 -0.117549,-0.117548 -0.04537,-0.07837 -0.07424,-0.18354 -0.02887,-0.107238 -0.05156,-0.197977 L 98.14638,53.66793 q -0.04537,-0.177354 -0.04537,-0.270155 0,-0.117549 0.08249,-0.197976 0.08249,-0.08043 0.204163,-0.08043 0.167043,0 0.224786,0.107237 0.05774,0.107237 0.10105,0.3114 l 0.395952,1.765287 0.443384,-1.651863 q 0.04949,-0.189728 0.08868,-0.288716 0.03918,-0.09899 0.127859,-0.171166 0.08868,-0.07218 0.241276,-0.07218 0.15467,0 0.23923,0.0763 0.0866,0.07424 0.11961,0.162918 0.033,0.08868 0.0887,0.29284 l 0.44751,1.651863 0.39595,-1.765287 q 0.0289,-0.138171 0.0536,-0.216537 0.0268,-0.07837 0.0887,-0.140233 0.0639,-0.06187 0.18354,-0.06187 0.11961,0 0.2021,0.08043 0.0845,0.07836 0.0845,0.197976 0,0.08455 -0.0454,0.270155 l -0.50319,2.035441 q -0.0516,0.206226 -0.0866,0.303151 -0.033,0.09486 -0.11549,0.167043 -0.0804,0.07218 -0.22891,0.07218 -0.14023,0 -0.22478,-0.07012 -0.0846,-0.07012 -0.11755,-0.156731 -0.033,-0.08868 -0.0928,-0.301089 z"
         id="path8439" /><path
         d="m 104.31251,53.643183 h -1.37965 v 0.74241 h 1.27035 q 0.14023,0 0.20829,0.06393 0.0701,0.06187 0.0701,0.16498 0,0.103112 -0.0681,0.169104 -0.068,0.06393 -0.21035,0.06393 h -1.27035 v 0.859959 h 1.42708 q 0.14436,0 0.21654,0.06805 0.0742,0.06599 0.0742,0.177354 0,0.107237 -0.0742,0.175291 -0.0722,0.06599 -0.21654,0.06599 h -1.66423 q -0.20004,0 -0.28872,-0.08868 -0.0866,-0.08868 -0.0866,-0.286653 v -2.2726 q 0,-0.131984 0.0392,-0.214474 0.0392,-0.08455 0.12167,-0.121673 0.0846,-0.03918 0.21448,-0.03918 h 1.6168 q 0.14642,0 0.21654,0.06599 0.0722,0.06393 0.0722,0.169105 0,0.107237 -0.0722,0.173229 -0.0701,0.06393 -0.21654,0.06393 z"
         id="path8441" /><path
         d="m 106.42838,56.194187 h -0.92389 q -0.20004,0 -0.28665,-0.08868 -0.0845,-0.09074 -0.0845,-0.286653 v -2.2726 q 0,-0.200039 0.0866,-0.286653 0.0887,-0.08868 0.28459,-0.08868 h 0.97957 q 0.21654,0 0.37533,0.02681 0.15879,0.02681 0.28459,0.103113 0.10724,0.06393 0.18973,0.162918 0.0825,0.09693 0.1258,0.216536 0.0433,0.117548 0.0433,0.249532 0,0.453696 -0.45369,0.664045 0.59599,0.189727 0.59599,0.738286 0,0.253657 -0.12992,0.45782 -0.12993,0.202101 -0.35059,0.299026 -0.13817,0.05774 -0.31758,0.08249 -0.17942,0.02269 -0.41864,0.02269 z m -0.0454,-1.342525 h -0.63723 v 0.882643 h 0.65785 q 0.62074,0 0.62074,-0.447508 0,-0.22891 -0.16085,-0.332023 -0.16086,-0.103112 -0.48051,-0.103112 z m -0.63723,-1.220853 v 0.781593 h 0.56093 q 0.22891,0 0.35264,-0.04331 0.1258,-0.04331 0.19179,-0.16498 0.0516,-0.08662 0.0516,-0.193852 0,-0.22891 -0.16292,-0.303151 -0.16292,-0.0763 -0.497,-0.0763 z"
         id="path8443" /><path
         d="m 110.05382,54.901156 h -0.21448 v 0.97132 q 0,0.191789 -0.0846,0.282528 -0.0845,0.09074 -0.22066,0.09074 -0.14642,0 -0.22685,-0.09486 -0.0804,-0.09486 -0.0804,-0.278404 v -2.326219 q 0,-0.197976 0.0887,-0.286653 0.0887,-0.08868 0.28665,-0.08868 h 0.99607 q 0.20623,0 0.35265,0.01856 0.14642,0.0165 0.26396,0.07012 0.1423,0.0598 0.2516,0.171167 0.1093,0.111361 0.16498,0.259843 0.0577,0.14642 0.0577,0.3114 0,0.338209 -0.19179,0.54031 -0.18972,0.202101 -0.57743,0.286653 0.16292,0.08661 0.3114,0.255719 0.14848,0.169105 0.26397,0.360894 0.11755,0.189727 0.18148,0.344396 0.066,0.152607 0.066,0.21035 0,0.05981 -0.0392,0.11961 -0.0371,0.05774 -0.10311,0.09074 -0.066,0.03506 -0.15261,0.03506 -0.10311,0 -0.17323,-0.04949 -0.0701,-0.04743 -0.12167,-0.121672 -0.0495,-0.07424 -0.13611,-0.218599 l -0.24541,-0.408326 q -0.13198,-0.224785 -0.23716,-0.342333 -0.10311,-0.117549 -0.21035,-0.160856 -0.10723,-0.04331 -0.27015,-0.04331 z m 0.35058,-1.270347 h -0.56506 v 0.831087 h 0.54856 q 0.22066,0 0.37121,-0.03712 0.15054,-0.03918 0.22891,-0.129922 0.0804,-0.0928 0.0804,-0.253657 0,-0.125797 -0.0639,-0.220661 -0.0639,-0.09693 -0.17736,-0.144357 -0.10724,-0.04537 -0.42276,-0.04537 z"
         id="path8445" /><path
         d="m 114.20307,55.851853 -0.14436,-0.379454 h -1.2291 l -0.14436,0.387703 q -0.0845,0.226848 -0.14436,0.307276 -0.0598,0.07836 -0.19591,0.07836 -0.11549,0 -0.20416,-0.08455 -0.0887,-0.08455 -0.0887,-0.191789 0,-0.06187 0.0206,-0.12786 0.0206,-0.06599 0.0681,-0.18354 l 0.77334,-1.963263 q 0.033,-0.08455 0.0784,-0.202101 0.0474,-0.11961 0.099,-0.197976 0.0536,-0.07837 0.13817,-0.125797 0.0866,-0.04949 0.21242,-0.04949 0.12786,0 0.21241,0.04949 0.0866,0.04743 0.13817,0.123735 0.0536,0.0763 0.0887,0.16498 0.0371,0.08662 0.0928,0.233034 l 0.78984,1.95089 q 0.0928,0.222723 0.0928,0.323773 0,0.105175 -0.0887,0.193852 -0.0866,0.08661 -0.21035,0.08661 -0.0722,0 -0.12373,-0.02681 -0.0516,-0.02475 -0.0866,-0.06805 -0.035,-0.04537 -0.0763,-0.136109 -0.0392,-0.0928 -0.068,-0.162918 z m -1.21261,-0.839336 h 0.90327 l -0.45576,-1.247662 z"
         id="path8447" /><path
         d="m 115.22594,55.488897 1.55288,-1.858088 h -1.33428 q -0.14023,0 -0.21241,-0.06187 -0.0701,-0.06187 -0.0701,-0.162918 0,-0.105175 0.0701,-0.169105 0.0722,-0.06599 0.21241,-0.06599 h 1.71992 q 0.33408,0 0.33408,0.3114 0,0.148482 -0.0557,0.237159 -0.0557,0.08868 -0.22478,0.286653 l -1.45183,1.728166 h 1.60031 q 0.1423,0 0.21241,0.05981 0.0701,0.05774 0.0701,0.162918 0,0.1093 -0.0701,0.173229 -0.0701,0.06393 -0.21241,0.06393 h -1.96326 q -0.20004,0 -0.30109,-0.08868 -0.10105,-0.09074 -0.10105,-0.241283 0,-0.05156 0.0165,-0.09486 0.0165,-0.04331 0.0433,-0.08043 0.0289,-0.03918 0.0784,-0.09693 0.0495,-0.05981 0.0866,-0.103113 z"
         id="path8449" /><path
         d="m 118.48224,53.52151 0.68467,2.027193 0.68672,-2.041629 q 0.0536,-0.160856 0.0804,-0.222723 0.0268,-0.06393 0.0887,-0.113424 0.0619,-0.05156 0.1691,-0.05156 0.0784,0 0.14436,0.03918 0.0681,0.03918 0.10518,0.105174 0.0392,0.06393 0.0392,0.129922 0,0.04537 -0.0124,0.09899 -0.0124,0.05156 -0.0309,0.103113 -0.0186,0.04949 -0.0371,0.103112 l -0.7321,1.975637 q -0.0392,0.113424 -0.0784,0.216536 -0.0392,0.101051 -0.0907,0.179416 -0.0516,0.0763 -0.13817,0.125797 -0.0846,0.04949 -0.20829,0.04949 -0.12374,0 -0.21035,-0.04949 -0.0846,-0.04743 -0.13817,-0.125797 -0.0516,-0.08043 -0.0907,-0.181478 -0.0392,-0.10105 -0.0784,-0.214474 l -0.71972,-1.959139 q -0.0186,-0.05362 -0.0392,-0.105174 -0.0186,-0.05156 -0.033,-0.111362 -0.0124,-0.0598 -0.0124,-0.10105 0,-0.105175 0.0846,-0.19179 0.0845,-0.08661 0.21241,-0.08661 0.15673,0 0.22066,0.09693 0.066,0.09486 0.13405,0.305213 z"
         id="path8451" /><path
         d="m 122.21491,53.119371 q 0.4702,0 0.80634,0.191789 0.33821,0.189727 0.51144,0.542372 0.17323,0.350583 0.17323,0.824901 0,0.350582 -0.0949,0.637235 -0.0949,0.286653 -0.28459,0.497003 -0.18973,0.210349 -0.46607,0.321711 -0.27634,0.111361 -0.63311,0.111361 -0.35471,0 -0.63518,-0.113423 -0.28046,-0.115486 -0.46813,-0.323774 -0.18766,-0.208287 -0.28459,-0.501127 -0.0949,-0.292839 -0.0949,-0.633111 0,-0.34852 0.099,-0.639298 0.10105,-0.290777 0.29077,-0.49494 0.18973,-0.204163 0.46195,-0.3114 0.27222,-0.109299 0.61867,-0.109299 z m 0.87027,1.554937 q 0,-0.332022 -0.10723,-0.575368 -0.10724,-0.243346 -0.30728,-0.367081 -0.19797,-0.125797 -0.45576,-0.125797 -0.18354,0 -0.34027,0.07012 -0.15467,0.06805 -0.26809,0.200038 -0.11136,0.131984 -0.17735,0.338209 -0.0639,0.204163 -0.0639,0.459882 0,0.257781 0.0639,0.466069 0.066,0.208287 0.18354,0.346458 0.11961,0.136109 0.27221,0.204163 0.15467,0.06805 0.33821,0.06805 0.2351,0 0.43101,-0.117548 0.19798,-0.117548 0.31347,-0.362956 0.11754,-0.245408 0.11754,-0.604239 z"
         id="path8453" /><path
         d="m 125.98677,53.490576 v 1.583809 q 0,0.206225 -0.0186,0.350583 -0.0165,0.144357 -0.0784,0.292839 -0.10311,0.249533 -0.34027,0.389766 -0.23716,0.13817 -0.57743,0.13817 -0.30727,0 -0.5135,-0.09692 -0.20416,-0.09693 -0.32996,-0.313463 -0.066,-0.115486 -0.10724,-0.26603 -0.0412,-0.150544 -0.0412,-0.286653 0,-0.144357 0.0804,-0.220661 0.0804,-0.0763 0.20622,-0.0763 0.12167,0 0.18354,0.07012 0.0619,0.07012 0.0949,0.218598 0.035,0.158794 0.0701,0.253657 0.0351,0.09486 0.11755,0.162918 0.0825,0.06805 0.2351,0.06805 0.40626,0 0.40626,-0.59599 v -1.672486 q 0,-0.185603 0.0804,-0.278404 0.0825,-0.0928 0.22272,-0.0928 0.1423,0 0.22479,0.0928 0.0846,0.0928 0.0846,0.278404 z"
         id="path8455" /></g></g></svg>
