<?xml version="1.0" encoding="UTF-8" standalone="no"?>
<!-- Created with Inkscape (http://www.inkscape.org/) -->

<svg
   id="svg5"
   version="1.1"
   viewBox="0 0 116.39905 21.815048"
   height="21.815048mm"
   width="116.39905mm"
   xmlns="http://www.w3.org/2000/svg"
   xmlns:svg="http://www.w3.org/2000/svg">
  <defs
     id="defs2" />
  <g
     id="layer1"
     transform="translate(-25.557145,-233.2241)">
    <path
       d="m 51.317823,239.04279 -5.818691,15.09097 h -5.482739 l -5.778377,-15.09097 h 5.119911 l 3.493902,10.3742 3.453588,-10.3742 z"
       id="path211"
       style="font-weight:bold;font-size:27.5212px;-inkscape-font-specification:'sans-serif Bold';fill:#000080;stroke-width:2.29343" />
    <path
       d="M 68.867964,247.48191 H 57.794981 q 0.107505,1.77382 1.343809,2.71449 1.249742,0.94067 3.668597,0.94067 1.531942,0 2.969817,-0.55097 1.437876,-0.55096 2.271037,-1.18255 h 0.537523 v 3.88361 q -1.639446,0.65847 -3.090759,0.9541 -1.451314,0.29564 -3.211703,0.29564 -4.542073,0 -6.960929,-2.04259 -2.418855,-2.04259 -2.418855,-5.81869 0,-3.73579 2.284475,-5.91276 2.297912,-2.19041 6.289024,-2.19041 3.682035,0 5.536491,1.8679 1.854456,1.85445 1.854456,5.34836 z m -4.810835,-2.83544 q -0.04031,-1.5185 -0.752533,-2.28447 -0.712218,-0.76598 -2.217284,-0.76598 -1.397561,0 -2.297912,0.72566 -0.900352,0.72566 -1.007857,2.32479 z"
       id="path213"
       style="font-weight:bold;font-size:27.5212px;-inkscape-font-specification:'sans-serif Bold';fill:#000080;stroke-width:2.29343" />
    <path
       d="m 88.030673,246.37998 q 0,3.5611 -1.975399,5.80526 -1.96196,2.24416 -4.904901,2.24416 -1.26318,0 -2.217284,-0.26877 -0.954105,-0.26876 -1.814142,-0.7794 l -0.201571,0.75253 h -4.63614 V 233.2241 h 4.837711 v 7.39094 q 1.115361,-0.88691 2.271036,-1.43787 1.169114,-0.55096 2.687618,-0.55096 2.862312,0 4.407692,2.06946 1.54538,2.05603 1.54538,5.68431 z m -4.98553,0.0941 q 0,-2.01571 -0.685343,-3.1042 -0.685342,-1.08848 -2.445731,-1.08848 -0.685343,0 -1.410999,0.21501 -0.725657,0.20157 -1.384123,0.59127 v 7.57908 q 0.524085,0.18814 0.994418,0.25533 0.470333,0.0672 1.1288,0.0672 1.921646,0 2.862312,-1.1288 0.940666,-1.1288 0.940666,-3.3864 z"
       id="path215"
       style="font-weight:bold;font-size:27.5212px;-inkscape-font-specification:'sans-serif Bold';fill:#000080;stroke-width:2.29343" />
    <path
       id="path217"
       style="font-weight:bold;font-size:27.5212px;-inkscape-font-specification:'sans-serif Bold';fill:#000080;stroke-width:2.29343"
       d="m 99.23787,238.62626 c -1.146715,0 -2.25309,0.14775 -3.319177,0.44339 -1.066088,0.29563 -2.006807,0.76125 -2.82205,1.39733 -0.84212,0.6719 -1.500262,1.5186 -1.975073,2.53989 -0.465854,1.0213 -0.698666,2.23513 -0.698666,3.64164 0,1.33485 0.219381,2.49994 0.658358,3.49436 0.438977,0.99441 1.056825,1.81822 1.854151,2.4722 0.806283,0.65399 1.751481,1.13804 2.835485,1.45159 1.092963,0.31356 2.297836,0.47026 3.614767,0.47026 1.003375,0 1.917225,-0.10746 2.741435,-0.32246 0.61167,-0.15128 1.20412,-0.34387 1.77715,-0.57723 a 9.3798704,9.3798704 0 0 1 -2.18488,-2.94245 c -0.17266,0.0659 -0.35867,0.1286 -0.55965,0.18706 -0.48377,0.13438 -1.0305,0.20154 -1.639696,0.20154 -1.307973,0 -2.320327,-0.3766 -3.037024,-1.12913 -0.707739,-0.75253 -1.061434,-1.85443 -1.061434,-3.30574 0,-1.40651 0.344741,-2.51737 1.034562,-3.33261 0.69878,-0.8242 1.693226,-1.2361 2.98328,-1.2361 0.582312,0 1.093232,0.0672 1.532202,0.20154 0.28055,0.0802 0.5461,0.17479 0.79737,0.28422 a 9.3798704,9.3798704 0 0 1 2.26136,-2.94866 c -0.61188,-0.25957 -1.25949,-0.47844 -1.94355,-0.65474 -0.86899,-0.22397 -1.81867,-0.3359 -2.84892,-0.3359 z" />
    <path
       id="text1206-3"
       style="font-style:normal;font-variant:normal;font-weight:bold;font-stretch:normal;font-size:27.5212px;font-family:sans-serif;-inkscape-font-specification:'sans-serif Bold';fill:#000080;stroke-width:2.29343"
       d="m 127.04031,238.62213 c -0.92275,0 -1.76497,0.18408 -2.52646,0.55138 -0.76149,0.36731 -1.55894,0.87771 -2.39211,1.53169 v -1.66604 h -4.83743 v 1.50895 a 9.3798704,9.3798704 0 0 1 2.2872,6.13347 9.3798704,9.3798704 0 0 1 -2.2872,6.1371 v 1.31103 h 4.83743 V 243.4332 c 0.35835,-0.21501 0.7613,-0.41648 1.20923,-0.60461 0.44794,-0.19709 0.9096,-0.29559 1.38441,-0.29559 0.59128,0 1.04795,0.0761 1.37046,0.22841 0.33148,0.14334 0.57824,0.37615 0.73949,0.69866 0.16126,0.32252 0.25976,0.74337 0.29559,1.26298 0.0358,0.51064 0.0538,1.13349 0.0538,1.8681 v 7.53856 h 4.8643 V 243.4332 c 0.55544,-0.32251 1.02606,-0.55085 1.41128,-0.68523 0.38523,-0.14334 0.77922,-0.21497 1.18236,-0.21497 0.60023,0 1.06586,0.0761 1.39733,0.22841 0.33147,0.14334 0.57376,0.37615 0.72605,0.69866 0.16126,0.32252 0.25528,0.73889 0.28216,1.24954 0.0358,0.51065 0.0537,1.13797 0.0537,1.88154 v 7.53856 h 4.8643 v -9.82318 c 0,-1.83653 -0.42533,-3.24288 -1.2764,-4.21938 -0.84212,-0.9765 -2.07834,-1.46502 -3.70882,-1.46502 -0.87796,0 -1.7739,0.23333 -2.68769,0.69918 -0.91379,0.46585 -1.85451,1.10609 -2.82205,1.92133 -0.43002,-0.86004 -1.026,-1.50923 -1.78749,-1.9482 -0.76149,-0.44794 -1.63902,-0.67231 -2.63343,-0.67231 z" />
    <circle
       style="fill:#008080;stroke-width:0.324489"
       id="path1258-0"
       cx="110.19157"
       cy="246.68181"
       r="5.6980519" />
    <ellipse
       style="fill:#008080;stroke-width:0.128646"
       id="path1258-0-8"
       cx="27.820038"
       cy="240.38336"
       rx="2.2628927"
       ry="2.2551951" />
    <ellipse
       style="fill:#008080;stroke-width:0.128646"
       id="path1258-0-8-9"
       cx="27.820038"
       cy="246.58365"
       rx="2.2628927"
       ry="2.2551951" />
    <ellipse
       style="fill:#008080;stroke-width:0.128646"
       id="path1258-0-8-9-7"
       cx="27.820038"
       cy="252.78395"
       rx="2.2628927"
       ry="2.2551951" />
    <circle
       id="path278"
       style="fill:#ffffff;stroke:#000000;stroke-width:0.264583"
       cx="133.24677"
       cy="248.61038"
       r="0.046706151" />
  </g>
</svg>
