<?xml version="1.0" encoding="UTF-8" standalone="no"?>
<!-- Created with Inkscape (http://www.inkscape.org/) -->

<svg
   id="svg5"
   version="1.1"
   viewBox="0 0 210 297"
   height="297mm"
   width="210mm"
   inkscape:version="1.2.1 (9c6d41e410, 2022-07-14)"
   sodipodi:docname="vebcom inkscape.svg"
   inkscape:export-filename="vebcom.svg"
   inkscape:export-xdpi="41.916027"
   inkscape:export-ydpi="41.916027"
   xmlns:inkscape="http://www.inkscape.org/namespaces/inkscape"
   xmlns:sodipodi="http://sodipodi.sourceforge.net/DTD/sodipodi-0.dtd"
   xmlns="http://www.w3.org/2000/svg"
   xmlns:svg="http://www.w3.org/2000/svg">
  <sodipodi:namedview
     id="namedview7"
     pagecolor="#ffffff"
     bordercolor="#000000"
     borderopacity="0.25"
     inkscape:showpageshadow="2"
     inkscape:pageopacity="0.0"
     inkscape:pagecheckerboard="0"
     inkscape:deskcolor="#d1d1d1"
     inkscape:document-units="mm"
     showgrid="false"
     inkscape:zoom="0.75455245"
     inkscape:cx="462.52583"
     inkscape:cy="1041.0144"
     inkscape:window-width="1590"
     inkscape:window-height="848"
     inkscape:window-x="2075"
     inkscape:window-y="141"
     inkscape:window-maximized="0"
     inkscape:current-layer="layer1"
     showguides="true">
    <sodipodi:guide
       position="100,197"
       orientation="0,1"
       id="guide658"
       inkscape:locked="false"
       inkscape:label=""
       inkscape:color="rgb(0,134,229)" />
    <sodipodi:guide
       position="100,177"
       orientation="0,1"
       id="guide660"
       inkscape:locked="false"
       inkscape:label=""
       inkscape:color="rgb(0,134,229)" />
    <sodipodi:guide
       position="100,137"
       orientation="0,1"
       id="guide676"
       inkscape:locked="false"
       inkscape:label=""
       inkscape:color="rgb(0,134,229)" />
    <sodipodi:guide
       position="100,117"
       orientation="0,1"
       id="guide678"
       inkscape:locked="false"
       inkscape:label=""
       inkscape:color="rgb(0,134,229)" />
  </sodipodi:namedview>
  <defs
     id="defs2" />
  <g
     inkscape:label="Layer 1"
     inkscape:groupmode="layer"
     id="layer1">
    <path
       d="m 51.317823,239.04279 -5.818691,15.09097 h -5.482739 l -5.778377,-15.09097 h 5.119911 l 3.493902,10.3742 3.453588,-10.3742 z"
       id="path211"
       style="font-weight:bold;font-size:27.5212px;-inkscape-font-specification:'sans-serif Bold';fill:#000080;stroke-width:2.29343" />
    <path
       d="M 68.867964,247.48191 H 57.794981 q 0.107505,1.77382 1.343809,2.71449 1.249742,0.94067 3.668597,0.94067 1.531942,0 2.969817,-0.55097 1.437876,-0.55096 2.271037,-1.18255 h 0.537523 v 3.88361 q -1.639446,0.65847 -3.090759,0.9541 -1.451314,0.29564 -3.211703,0.29564 -4.542073,0 -6.960929,-2.04259 -2.418855,-2.04259 -2.418855,-5.81869 0,-3.73579 2.284475,-5.91276 2.297912,-2.19041 6.289024,-2.19041 3.682035,0 5.536491,1.8679 1.854456,1.85445 1.854456,5.34836 z m -4.810835,-2.83544 q -0.04031,-1.5185 -0.752533,-2.28447 -0.712218,-0.76598 -2.217284,-0.76598 -1.397561,0 -2.297912,0.72566 -0.900352,0.72566 -1.007857,2.32479 z"
       id="path213"
       style="font-weight:bold;font-size:27.5212px;-inkscape-font-specification:'sans-serif Bold';fill:#000080;stroke-width:2.29343" />
    <path
       d="m 88.030673,246.37998 q 0,3.5611 -1.975399,5.80526 -1.96196,2.24416 -4.904901,2.24416 -1.26318,0 -2.217284,-0.26877 -0.954105,-0.26876 -1.814142,-0.7794 l -0.201571,0.75253 h -4.63614 V 233.2241 h 4.837711 v 7.39094 q 1.115361,-0.88691 2.271036,-1.43787 1.169114,-0.55096 2.687618,-0.55096 2.862312,0 4.407692,2.06946 1.54538,2.05603 1.54538,5.68431 z m -4.98553,0.0941 q 0,-2.01571 -0.685343,-3.1042 -0.685342,-1.08848 -2.445731,-1.08848 -0.685343,0 -1.410999,0.21501 -0.725657,0.20157 -1.384123,0.59127 v 7.57908 q 0.524085,0.18814 0.994418,0.25533 0.470333,0.0672 1.1288,0.0672 1.921646,0 2.862312,-1.1288 0.940666,-1.1288 0.940666,-3.3864 z"
       id="path215"
       style="font-weight:bold;font-size:27.5212px;-inkscape-font-specification:'sans-serif Bold';fill:#000080;stroke-width:2.29343" />
    <path
       id="path217"
       style="font-weight:bold;font-size:27.5212px;-inkscape-font-specification:'sans-serif Bold';fill:#000080;stroke-width:2.29343"
       d="M 99.23787 238.62626 C 98.091155 238.62626 96.98478 238.77401 95.918693 239.06965 C 94.852605 239.36528 93.911886 239.8309 93.096643 240.46698 C 92.254523 241.13888 91.596381 241.98558 91.12157 243.00687 C 90.655716 244.02817 90.422904 245.242 90.422904 246.64851 C 90.422904 247.98336 90.642285 249.14845 91.081262 250.14287 C 91.520239 251.13728 92.138087 251.96109 92.935413 252.61507 C 93.741696 253.26906 94.686894 253.75311 95.770898 254.06666 C 96.863861 254.38022 98.068734 254.53692 99.385665 254.53692 C 100.38904 254.53692 101.30289 254.42946 102.1271 254.21446 C 102.73877 254.06318 103.33122 253.87059 103.90425 253.63723 A 9.3798704 9.3798704 0 0 1 101.71937 250.69478 C 101.54671 250.76069 101.3607 250.82338 101.15972 250.88184 C 100.67595 251.01622 100.12922 251.08338 99.520024 251.08338 C 98.212051 251.08338 97.199697 250.70678 96.483 249.95425 C 95.775261 249.20172 95.421566 248.09982 95.421566 246.64851 C 95.421566 245.242 95.766307 244.13114 96.456128 243.3159 C 97.154908 242.4917 98.149354 242.0798 99.439408 242.0798 C 100.02172 242.0798 100.53264 242.14696 100.97161 242.28134 C 101.25216 242.36149 101.51771 242.45613 101.76898 242.56556 A 9.3798704 9.3798704 0 0 1 104.03034 239.6169 C 103.41846 239.35733 102.77085 239.13846 102.08679 238.96216 C 101.2178 238.73819 100.26812 238.62626 99.23787 238.62626 z " />
    <path
       id="text1206-3"
       style="font-style:normal;font-variant:normal;font-weight:bold;font-stretch:normal;font-size:27.5212px;font-family:sans-serif;-inkscape-font-specification:'sans-serif Bold';fill:#000080;stroke-width:2.29343"
       d="M 127.04031 238.62213 C 126.11756 238.62213 125.27534 238.80621 124.51385 239.17351 C 123.75236 239.54082 122.95491 240.05122 122.12174 240.7052 L 122.12174 239.03916 L 117.28431 239.03916 L 117.28431 240.54811 A 9.3798704 9.3798704 0 0 1 119.57151 246.68158 A 9.3798704 9.3798704 0 0 1 117.28431 252.81868 L 117.28431 254.12971 L 122.12174 254.12971 L 122.12174 243.4332 C 122.48009 243.21819 122.88304 243.01672 123.33097 242.82859 C 123.77891 242.6315 124.24057 242.533 124.71538 242.533 C 125.30666 242.533 125.76333 242.60911 126.08584 242.76141 C 126.41732 242.90475 126.66408 243.13756 126.82533 243.46007 C 126.98659 243.78259 127.08509 244.20344 127.12092 244.72305 C 127.15676 245.23369 127.17467 245.85654 127.17467 246.59115 L 127.17467 254.12971 L 132.03897 254.12971 L 132.03897 243.4332 C 132.59441 243.11069 133.06503 242.88235 133.45025 242.74797 C 133.83548 242.60463 134.22947 242.533 134.63261 242.533 C 135.23284 242.533 135.69847 242.60911 136.02994 242.76141 C 136.36141 242.90475 136.6037 243.13756 136.75599 243.46007 C 136.91725 243.78259 137.01127 244.19896 137.03815 244.70961 C 137.07398 245.22026 137.09189 245.84758 137.09189 246.59115 L 137.09189 254.12971 L 141.95619 254.12971 L 141.95619 244.30653 C 141.95619 242.47 141.53086 241.06365 140.67979 240.08715 C 139.83767 239.11065 138.60145 238.62213 136.97097 238.62213 C 136.09301 238.62213 135.19707 238.85546 134.28328 239.32131 C 133.36949 239.78716 132.42877 240.4274 131.46123 241.24264 C 131.03121 240.3826 130.43523 239.73341 129.67374 239.29444 C 128.91225 238.8465 128.03472 238.62213 127.04031 238.62213 z " />
    <circle
       style="fill:#008080;stroke-width:0.324489"
       id="path1258-0"
       cx="110.19157"
       cy="246.68181"
       r="5.6980519" />
    <ellipse
       style="fill:#008080;stroke-width:0.128646"
       id="path1258-0-8"
       cx="27.820038"
       cy="240.38336"
       rx="2.2628927"
       ry="2.2551951" />
    <ellipse
       style="fill:#008080;stroke-width:0.128646"
       id="path1258-0-8-9"
       cx="27.820038"
       cy="246.58365"
       rx="2.2628927"
       ry="2.2551951" />
    <ellipse
       style="fill:#008080;stroke-width:0.128646"
       id="path1258-0-8-9-7"
       cx="27.820038"
       cy="252.78395"
       rx="2.2628927"
       ry="2.2551951" />
    <circle
       id="path278"
       style="fill:#ffffff;stroke:#000000;stroke-width:0.264583"
       cx="133.24677"
       cy="248.61038"
       r="0.046706151" />
  </g>
</svg>
